<?xml version="1.0" encoding="utf-8"?>
<!-- Generator: Adobe Illustrator 22.1.0, SVG Export Plug-In . SVG Version: 6.00 Build 0)  -->
<svg version="1.1" id="Layer_1" xmlns="http://www.w3.org/2000/svg" xmlns:xlink="http://www.w3.org/1999/xlink" x="0px" y="0px"
	 viewBox="0 0 1080 926" style="enable-background:new 0 0 1080 926;" xml:space="preserve">
<g>
	<path d="M309,848.2h-77.1h-77.1V768h0v-74.1v-77.1c-25.3,0.1-50.5,0.1-75.8,0.2c0,78,0,156,0,234c25.3,0.1,50.5,0.1,75.8,0.2v74.1
		h77.1H309h77.1v-77.1H309z"/>
	<polygon points="2,388.5 2,465.6 2,542.7 2,619.1 2,619.8 2,695.4 2,696.2 2,771.8 2,772.6 2,848.2 2,849 2,925.3 79.1,925.3 
		79.1,849 79.1,848.2 79.1,772.6 79.1,771.8 79.1,696.2 79.1,695.4 79.1,619.8 79.1,619.1 79.1,542.7 79.1,465.6 79.1,388.5 	"/>
	<path d="M1002.9,385.5c0,179.9,0,359.9,0,539.8h77.1c0-179.9,0-359.9,0-539.8H1002.9z"/>
	<rect x="2" y="234.2" width="77.1" height="77.1"/>
	<rect x="1002.9" y="231.2" width="77.1" height="77.1"/>
	<polygon points="463.1,231.2 463.1,154.2 386,154.2 386,231.3 386.1,231.3 386.1,308.4 386.1,385.5 386.1,462.6 386.1,539.7 
		309,539.7 231.9,539.7 154.8,539.7 154.8,616.8 231.9,616.8 309,616.8 386.1,616.8 386.1,693.9 386.1,771 386.1,848.2 463.2,848.2 
		463.2,771 463.2,693.9 463.2,616.8 463.2,539.7 463.2,462.6 463.2,385.5 463.2,308.4 463.2,231.2 	"/>
	<path d="M617.5,848.2c0-282.7-0.1-565.4-0.1-848.2h-77.1c0,308.4,0.1,616.9,0.1,925.3c154.2,0,308.5,0,462.7,0v-77.1
		C874.5,848.2,746,848.2,617.5,848.2z"/>
</g>
</svg>
