<svg xmlns="http://www.w3.org/2000/svg" viewBox="0 0 3200 3200"><title>add</title><g id="Шар_3" data-name="Шар 3"><rect x="1400" y="10" width="400" height="400"/><path d="M1805,415H1395V5h410Zm-400-10h390V15H1405Z"/><path d="M1800.5,410.5h-401V9.5h401Zm-400-1h399V10.5h-399Z"/><path d="M1805.5,415.5h-411V4.5h411Zm-400-11h389V15.5h-389Z"/><rect x="1400" y="410" width="400" height="400"/><path d="M1805,815H1395V405h410Zm-400-10h390V415H1405Z"/><path d="M1800.5,810.5h-401v-401h401Zm-400-1h399v-399h-399Z"/><path d="M1805.5,815.5h-411v-411h411Zm-400-11h389v-389h-389Z"/><rect x="1400" y="810" width="400" height="400"/><path d="M1805,1215H1395V805h410Zm-400-10h390V815H1405Z"/><path d="M1800.5,1210.5h-401v-401h401Zm-400-1h399v-399h-399Z"/><path d="M1805.5,1215.5h-411v-411h411Zm-400-11h389v-389h-389Z"/><rect x="1400" y="1210" width="400" height="400"/><path d="M1805,1615H1395V1205h410Zm-400-10h390V1215H1405Z"/><path d="M1800.5,1610.5h-401v-401h401Zm-400-1h399v-399h-399Z"/><path d="M1805.5,1615.5h-411v-411h411Zm-400-11h389v-389h-389Z"/><rect x="1400" y="1610" width="400" height="400"/><path d="M1805,2015H1395V1605h410Zm-400-10h390V1615H1405Z"/><path d="M1800.5,2010.5h-401v-401h401Zm-400-1h399v-399h-399Z"/><path d="M1805.5,2015.5h-411v-411h411Zm-400-11h389v-389h-389Z"/><rect x="1400" y="2010" width="400" height="400"/><path d="M1805,2415H1395V2005h410Zm-400-10h390V2015H1405Z"/><path d="M1800.5,2410.5h-401v-401h401Zm-400-1h399v-399h-399Z"/><path d="M1805.5,2415.5h-411v-411h411Zm-400-11h389v-389h-389Z"/><rect x="1400" y="2410" width="400" height="400"/><path d="M1805,2815H1395V2405h410Zm-400-10h390V2415H1405Z"/><path d="M1800.5,2810.5h-401v-401h401Zm-400-1h399v-399h-399Z"/><path d="M1805.5,2815.5h-411v-411h411Zm-400-11h389v-389h-389Z"/><rect x="1400" y="2810" width="400" height="400"/><path d="M1805,3215H1395V2805h410Zm-400-10h390V2815H1405Z"/><path d="M1800.5,3210.5h-401v-401h401Zm-400-1h399v-399h-399Z"/><path d="M1805.5,3215.5h-411v-411h411Zm-400-11h389v-389h-389Z"/><rect y="1400" width="400" height="400"/><path d="M405,1805H-5V1395H405ZM5,1795H395V1405H5Z"/><path d="M400.5,1800.5H-.5v-401h401Zm-400-1h399v-399H.5Z"/><path d="M405.5,1805.5H-5.5v-411h411Zm-400-11h389v-389H5.5Z"/><rect x="400" y="1400" width="400" height="400"/><path d="M805,1805H395V1395H805Zm-400-10H795V1405H405Z"/><path d="M800.5,1800.5h-401v-401h401Zm-400-1h399v-399h-399Z"/><path d="M805.5,1805.5h-411v-411h411Zm-400-11h389v-389h-389Z"/><rect x="800" y="1400" width="400" height="400"/><path d="M1205,1805H795V1395h410Zm-400-10h390V1405H805Z"/><path d="M1200.5,1800.5h-401v-401h401Zm-400-1h399v-399h-399Z"/><path d="M1205.5,1805.5h-411v-411h411Zm-400-11h389v-389h-389Z"/><rect x="1200" y="1400" width="400" height="400"/><path d="M1605,1805H1195V1395h410Zm-400-10h390V1405H1205Z"/><path d="M1600.5,1800.5h-401v-401h401Zm-400-1h399v-399h-399Z"/><path d="M1605.5,1805.5h-411v-411h411Zm-400-11h389v-389h-389Z"/><rect x="1600" y="1400" width="400" height="400"/><path d="M2005,1805H1595V1395h410Zm-400-10h390V1405H1605Z"/><path d="M2000.5,1800.5h-401v-401h401Zm-400-1h399v-399h-399Z"/><path d="M2005.5,1805.5h-411v-411h411Zm-400-11h389v-389h-389Z"/><rect x="2000" y="1400" width="400" height="400"/><path d="M2405,1805H1995V1395h410Zm-400-10h390V1405H2005Z"/><path d="M2400.5,1800.5h-401v-401h401Zm-400-1h399v-399h-399Z"/><path d="M2405.5,1805.5h-411v-411h411Zm-400-11h389v-389h-389Z"/><rect x="2400" y="1400" width="400" height="400"/><path d="M2805,1805H2395V1395h410Zm-400-10h390V1405H2405Z"/><path d="M2800.5,1800.5h-401v-401h401Zm-400-1h399v-399h-399Z"/><path d="M2805.5,1805.5h-411v-411h411Zm-400-11h389v-389h-389Z"/><rect x="2800" y="1400" width="400" height="400"/><path d="M3205,1805H2795V1395h410Zm-400-10h390V1405H2805Z"/><path d="M3200.5,1800.5h-401v-401h401Zm-400-1h399v-399h-399Z"/><path d="M3205.5,1805.5h-411v-411h411Zm-400-11h389v-389h-389Z"/></g></svg>