<svg id="Шар_1" data-name="Шар 1" xmlns="http://www.w3.org/2000/svg" viewBox="0 0 3200 3200"><defs><style>.cls-1{fill:#020202;}.cls-2{fill:#050505;}</style></defs><title>filters</title><rect class="cls-1" x="987.82" y="796.55" width="400" height="400" transform="translate(12.72 -14.96) rotate(0.73)"/><path class="cls-2" d="M1385.77,1199.57l-401-5.07,5.08-401,401,5.08Zm-400-6.06,399,5,5-399-399-5.05Z"/><path class="cls-1" d="M1387.74,1201.6l-2.5,0-402.46-5.1,0-2.5L987.9,791.5l2.5,0,402.47,5.1,0,2.5Zm-399.9-10.07,395,5,5-395-395-5Z"/><path class="cls-2" d="M1388.24,1202.1l-406-5.14,5.14-406,406,5.14Zm-405-6.12,404,5.11,5.12-404L988.4,792Zm400,1.06-396-5,5-396,396,5Zm-395-6,394,5,5-394-394-5Z"/><path class="cls-1" d="M1387.74,1201.6l-2.5,0-402.46-5.1,0-2.5L987.9,791.5l2.5,0,402.47,5.1,0,2.5Zm-399.9-10.07,395,5,5-395-395-5Z"/><path class="cls-2" d="M1388.24,1202.1l-406-5.14,5.14-406,406,5.14Zm-405-6.12,404,5.11,5.12-404L988.4,792Zm400,1.06-396-5,5-396,396,5Zm-395-6,394,5,5-394-394-5Z"/><path class="cls-1" d="M1390.21,1204.13l-5-.06-405-5.13.07-5,5.13-405,5,.06,405,5.13-.06,5Zm-4.94-5.06,4.21-332.13Zm-394.9-10,390,4.93,4.94-390-390-4.94Zm0-395-4.06,320.83Z"/><path class="cls-2" d="M1390.71,1204.64l-411-5.21,5.2-411,411,5.21Zm-410-6.2,409,5.18,5.18-409-409-5.18Zm405,.63h-1L1389,866.93l1,0Zm-4.94-4.56-391-5,5-391,391,4.95Zm-389.95-5.94,389,4.93,4.93-389-389-4.93Zm-4.07-73.7-1,0L989.87,794h1Z"/><path class="cls-1" d="M1385.77,1199.57l-401-5.07,5.08-401,401,5.08Zm-400-6.06,399,5,5-399-399-5.05Z"/><path class="cls-2" d="M1386.26,1200.08l-402-5.09,5.1-402,402,5.09Zm-401-6.08,400,5.07,5.06-400-400-5.07Zm400,5.07-400-5.07,5.06-400,400,5.07Zm-399-6.06,398,5,5-398-398-5Z"/><path class="cls-1" d="M1388.24,1202.1l-2.5,0L982.27,1197l0-2.5L987.41,791l2.5,0,403.47,5.11,0,2.5ZM988.34,1191l394,5,5-394-394-5Z"/><path class="cls-2" d="M1388.73,1202.61l-407-5.15,5.16-407,407,5.15Zm-406-6.14,405,5.13,5.13-405-405-5.13Zm400,.07-395-5,5-395,395,5Zm-394-6,393,5,5-393-393-5Z"/><path class="cls-1" d="M1388.24,1202.1l-2.5,0L982.27,1197l0-2.5L987.41,791l2.5,0,403.47,5.11,0,2.5ZM988.34,1191l394,5,5-394-394-5Z"/><path class="cls-2" d="M1388.73,1202.61l-407-5.15,5.16-407,407,5.15Zm-406-6.14,405,5.13,5.13-405-405-5.13Zm400,.07-395-5,5-395,395,5Zm-394-6,393,5,5-393-393-5Z"/><path class="cls-1" d="M1390.71,1204.64l-5-.07-406-5.14.06-5,5.14-406,5,.07,406,5.14-.06,5ZM984.8,1194.5l401,5.07,5.08-401-401-5.08Zm400,4.06-2.5,0-396.47-5,0-2.5,5-396.47,2.5,0,396.46,5,0,2.5Zm-393.9-10,389,4.93,4.93-389-389-4.93Z"/><path class="cls-2" d="M1391.2,1205.14l-412-5.22,5.22-412,412,5.22Zm-411-6.2,410,5.19,5.19-410-410-5.19Zm406,1.14-402-5.09,5.1-402,402,5.09Zm-2.28-1,1.29,0,.59-46.16-.59,46.16Zm-397.66-6,398,5,5-398-398-5Zm-1,1,44.27.56-44.27-.56v0Zm5.06-400-.58,46.16.58-46.16,1.29,0Zm355.7,4.51,44.27.56,0,1.32,0-1.32ZM1380.34,1194l-390-4.93,4.94-390,390,4.93Zm-389-5.92,388,4.91,4.92-388-388-4.91Z"/><rect class="cls-1" x="982.89" y="1192.02" width="400" height="400" transform="translate(17.72 -14.87) rotate(0.73)"/><path class="cls-2" d="M1380.83,1595l-401-5.08,5.07-401,401,5.07ZM980.88,1589l399,5,5.05-399-399-5Z"/><path class="cls-1" d="M1382.81,1597.07l-2.5,0-402.47-5.1,0-2.5L983,1187l2.5,0,402.47,5.1,0,2.5ZM982.9,1587l395,5,5-395-395-5Z"/><path class="cls-2" d="M1383.3,1597.57l-406-5.14,5.15-406,406,5.15Zm-404.95-6.13,404,5.12,5.11-404-404-5.11Zm400,1.07-396-5,5-396,396,5Zm-395-6,394,5,5-394-394-5Z"/><path class="cls-1" d="M1382.81,1597.07l-2.5,0-402.47-5.1,0-2.5L983,1187l2.5,0,402.47,5.1,0,2.5ZM982.9,1587l395,5,5-395-395-5Z"/><path class="cls-2" d="M1383.3,1597.57l-406-5.14,5.14-406,406,5.15Zm-404.95-6.13,404,5.12,5.11-404-404-5.11Zm400,1.07-396-5,5-396,396,5Zm-395-6,394,5,5-394-394-5Z"/><path class="cls-1" d="M1385.28,1599.6l-5-.06-405-5.13.06-5,5.13-405,5,.06,405,5.13-.06,5Zm-4.94-5.06,4.06-320.78Zm-394.9-10,390,4.94,4.94-390-390-4.94Zm0-395-4.06,320.78Z"/><path class="cls-2" d="M1385.77,1600.1l-411-5.2,5.21-411,411,5.21Zm-409.95-6.19,409,5.18,5.18-409L981,1185Zm405,.63h-1l4.06-320.77h1Zm-4.94-4.56-391-5,5-391,391,5Zm-390-5.94,389,4.93,4.93-389-389-4.93Zm-4.06-73.76h-1l4.06-320.77h1Z"/><path class="cls-1" d="M1380.83,1595l-401-5.08,5.07-401,401,5.07ZM980.88,1589l399,5,5.05-399-399-5Z"/><path class="cls-2" d="M1381.33,1595.55l-402-5.09,5.09-402,402,5.09Zm-401-6.08,400,5.07,5.07-400-400-5.07Zm400,5.07-400-5.07,5.07-400,400,5.07Zm-398.95-6.06,398,5,5-398-398-5Z"/><path class="cls-1" d="M1383.3,1597.57l-2.5,0-403.46-5.11,0-2.5,5.11-403.47,2.5,0,403.46,5.11,0,2.49Zm-399.89-11.06,394,5,5-394-394-5Z"/><path class="cls-2" d="M1383.8,1598.08l-407-5.16L982,1186l407,5.15Zm-406-6.14,405,5.13,5.13-405L983,1187Zm400,.06-395-5,5-395,395,5Zm-393.95-6,393,5,5-393-393-5Z"/><path class="cls-1" d="M1383.3,1597.57l-2.5,0-403.46-5.11,0-2.5,5.11-403.47,2.5,0,403.46,5.11,0,2.49Zm-399.89-11.06,394,5,5-394-394-5Z"/><path class="cls-2" d="M1383.8,1598.08l-407-5.16L982,1186l407,5.15Zm-406-6.14,405,5.13,5.13-405L983,1187Zm400,.06-395-5,5-395,395,5Zm-393.95-6,393,5,5-393-393-5Z"/><path class="cls-1" d="M1385.77,1600.1l-5-.06-406-5.14.07-5,5.14-406,5,.07,406,5.14-.07,5ZM979.87,1590l401,5.08,5.08-401-401-5.07Zm400,4.07-2.5,0-396.47-5,0-2.5,5-396.47,2.5,0,396.47,5,0,2.5Zm-393.91-10,389,4.93,4.93-389-389-4.93Z"/><path class="cls-2" d="M1386.26,1600.61l-412-5.22,5.21-412,412,5.21Zm-410.95-6.21,410,5.2,5.19-410-410-5.19Zm406,1.15-402-5.09,5.09-402,402,5.09Zm-1-1,.39-30.35Zm-398.95-6,398,5,5-398-398-5Zm-1,1,10.77.14-10.77-.14,0-1.32Zm5.07-400-.59,46.16.59-46.16,1.29,0Zm355.69,4.51,44.28.56,0,1.31,0-1.31Zm34.27,395.46-390-4.94,4.94-390,390,4.94Zm-389-5.92,388,4.91,4.91-388-388-4.91Z"/><rect class="cls-1" x="970.96" y="1991.95" width="400" height="400" transform="translate(27.85 -14.65) rotate(0.73)"/><path class="cls-2" d="M1368.9,2395l-401-5.08,5.08-401,401,5.08Zm-400-6.07,399,5.05,5.06-399-399-5.06Z"/><path class="cls-1" d="M1370.87,2397l-2.5,0-402.46-5.1,0-2.5,5.1-402.46,2.5,0L1376,1992l0,2.49ZM971,2386.94l395,5,5-395-395-5Z"/><path class="cls-2" d="M1371.37,2397.51l-406-5.14,5.14-406,406,5.14Zm-405-6.13,404,5.12,5.12-404-404-5.12Zm400,1.07-396-5,5-396,396,5Zm-395-6,394,5,5-394-394-5Z"/><path class="cls-1" d="M1370.87,2397l-2.5,0-402.46-5.1,0-2.5,5.1-402.46,2.5,0L1376,1992l0,2.49ZM971,2386.94l395,5,5-395-395-5Z"/><path class="cls-2" d="M1371.37,2397.51l-406-5.14,5.14-406,406,5.14Zm-405-6.13,404,5.12,5.12-404-404-5.12Zm400,1.07-396-5,5-396,396,5Zm-395-6,394,5,5-394-394-5Z"/><path class="cls-1" d="M1373.34,2399.53l-5-.06-405-5.13.06-5,5.13-405,5,.06,405,5.13-.06,5Zm-4.93-5.06,4-318Zm-394.91-10,390,4.94,4.94-390-390-4.94Zm0-395-4.06,320.77Z"/><path class="cls-2" d="M1373.84,2400l-411-5.21,5.2-411,411,5.2Zm-410-6.19,409,5.18,5.18-409-409-5.18Zm405,.63-1,0,4-317.95h1Zm-5-4.57L973,2385l5-391,391,5ZM974,2384l389,4.92,4.92-389-389-4.92Zm-4.07-73.76-1,0L973,1989.43h1Z"/><path class="cls-1" d="M1368.9,2395l-401-5.08,5.08-401,401,5.08Zm-400-6.07,399,5.05,5.06-399-399-5.06Z"/><path class="cls-2" d="M1369.39,2395.48l-402-5.09,5.09-402,402,5.1Zm-401-6.07,400,5.06,5.06-400-400-5.06Zm400,5.06-400-5.06,5.06-400,400,5.06Zm-399-6,398,5,5-398-398-5Z"/><path class="cls-1" d="M1371.37,2397.51l-2.5,0-403.47-5.11,0-2.5,5.11-403.47,2.5,0,403.47,5.11,0,2.5Zm-399.89-11.07,394,5,5-394-394-5Z"/><path class="cls-2" d="M1371.86,2398l-407-5.15,5.16-407,407,5.16Zm-405.95-6.14,405,5.13,5.13-405-405-5.13Zm400,.07-395-5,5-395,395,5Zm-394-6,393,5,5-393-393-5Z"/><path class="cls-1" d="M1371.37,2397.51l-2.5,0-403.47-5.11,0-2.5,5.11-403.47,2.5,0,403.47,5.11,0,2.5Zm-399.89-11.07,394,5,5-394-394-5Z"/><path class="cls-2" d="M1371.86,2398l-407-5.15,5.16-407,407,5.16Zm-405.95-6.14,405,5.13,5.13-405-405-5.13Zm400,.07-395-5,5-395,395,5Zm-394-6,393,5,5-393-393-5Z"/><path class="cls-1" d="M1373.84,2400l-5-.06-406-5.15.06-5,5.14-406,5,.06,406,5.14-.06,5ZM967.93,2389.9l401,5.08,5.08-401-401-5.08Zm400,4.06-2.5,0-396.47-5,0-2.5,5-396.47,2.5,0,396.47,5,0,2.5ZM974,2384l389,4.92,4.92-389-389-4.92Z"/><path class="cls-2" d="M1374.33,2400.55l-412-5.22,5.22-412,412,5.22Zm-410.95-6.21,410,5.19,5.19-410-410-5.19Zm406,1.14-402-5.09,5.09-402,402,5.09Zm-1-1,.4-31.72Zm-399-6,398,5,5-398-398-5Zm-1,1,0-1.39Zm5.06-400-.4,31.72Zm400,5.06,0,1.4Zm-10,394.91-390-4.94,4.94-390,390,4.94Zm-389-5.93,388,4.92,4.92-388-388-4.92Z"/><rect class="cls-1" x="968.02" y="2391.48" width="400" height="400" transform="translate(32.91 -14.58) rotate(0.73)"/><path class="cls-2" d="M1366,2794.5l-401-5.08,5.08-401,401,5.08Zm-400-6.07,399,5.06,5-399-399-5.05Z"/><path class="cls-1" d="M1367.94,2796.53l-2.5,0L963,2791.4l0-2.5,5.1-402.47,2.5,0,402.47,5.1,0,2.5ZM968,2786.46l395,5,5-395-395-5Z"/><path class="cls-2" d="M1368.43,2797l-406-5.14,5.14-406,406,5.14Zm-405-6.13,404,5.12,5.11-404-404-5.11Zm400,1.07-396-5,5-396,396,5Zm-395-6,394,5,5-394-394-5Z"/><path class="cls-1" d="M1367.94,2796.53l-2.5,0L963,2791.4l0-2.5,5.1-402.47,2.5,0,402.47,5.1,0,2.5ZM968,2786.46l395,5,5-395-395-5Z"/><path class="cls-2" d="M1368.43,2797l-406-5.14,5.14-406,406,5.14Zm-405-6.13,404,5.12,5.11-404-404-5.11Zm400,1.07-396-5,5-396,396,5Zm-395-6,394,5,5-394-394-5Z"/><path class="cls-1" d="M1370.41,2799.06l-5-.07-405-5.13.06-5,5.13-405,5,.06,405,5.13-.06,5Zm-4.94-5.07,4.07-320.82Zm-394.9-10,390,4.94,4.94-390-390-4.94Zm0-395-4,318Z"/><path class="cls-2" d="M1370.9,2799.56l-411-5.2,5.2-411,411,5.21ZM961,2793.37l409,5.18,5.17-409-409-5.18Zm405,.63h-1l4.07-320.83h1Zm-4.94-4.56-391-5,5-391,391,4.95Zm-390-5.94,389,4.93,4.93-389-389-4.92Zm-4-76.58h-1l4-318,1,0Z"/><path class="cls-1" d="M1366,2794.5l-401-5.08,5.08-401,401,5.08Zm-400-6.07,399,5.06,5-399-399-5.05Z"/><path class="cls-2" d="M1366.46,2795l-402-5.09,5.09-402,402,5.09Zm-401-6.08,400,5.06,5.07-400-400-5.07Zm400,5.06-400-5.06,5.07-400,400,5.07Zm-399-6,398,5,5-398-398-5Z"/><path class="cls-1" d="M1368.43,2797l-2.5,0-403.46-5.11,0-2.5,5.11-403.47,2.5,0,403.47,5.11,0,2.5ZM968.54,2786l394,5,5-394-394-5Z"/><path class="cls-2" d="M1368.93,2797.54l-407-5.16,5.15-407,407,5.15Zm-406-6.14,405,5.12,5.13-405-405-5.13Zm400,.06-395-5,5-395,395,5Zm-394-6,393,5,5-393-393-5Z"/><path class="cls-1" d="M1368.43,2797l-2.5,0-403.46-5.11,0-2.5,5.11-403.47,2.5,0,403.47,5.11,0,2.5ZM968.54,2786l394,5,5-394-394-5Z"/><path class="cls-2" d="M1368.93,2797.54l-407-5.16,5.15-407,407,5.15Zm-406-6.14,405,5.12,5.13-405-405-5.13Zm400,.06-395-5,5-395,395,5Zm-394-6,393,5,5-393-393-5Z"/><path class="cls-1" d="M1370.9,2799.56l-5-.06-406-5.14.06-5,5.14-406,5,.06,406,5.15-.07,5ZM965,2789.42l401,5.08,5.07-401-401-5.08Zm400,4.07-2.5,0-396.47-5,0-2.49,5-396.47,2.5,0,396.47,5,0,2.5Zm-393.91-10,389,4.92,4.93-389-389-4.93Z"/><path class="cls-2" d="M1371.4,2800.07l-412-5.22,5.22-412,412,5.21Zm-411-6.21,410,5.2,5.19-410-410-5.19Zm406,1.15-402-5.09,5.09-402,402,5.09Zm-2.28-1h1.29l.6-46.91-.6,46.91Zm-397.66-6,398,5,5-398-398-5Zm-1,1,44.28.56-44.28-.56,0-1.21Zm5.07-400-.51,40,.51-40,1.29,0Zm355.7,4.51,44.27.56,0,1.3,0-1.3Zm34.27,395.46-390-4.94,4.94-390,390,4.94Zm-389-5.92,388,4.91,4.91-388-388-4.91Z"/><rect class="cls-1" x="994.05" y="396.58" width="400" height="400" transform="translate(8.74 -17.19) rotate(0.83)"/><path class="cls-2" d="M1391.63,800h-.5l-400.46-5.78v-.5l5.79-400.46h.5L1397.42,399v.5Zm-399.94-6.78,399,5.76,5.76-399-399-5.76Z"/><path class="cls-1" d="M1393.6,802l-404.95-5.85,5.85-405,405,5.85ZM993.72,791.21l395,5.7,5.7-394.95-395-5.71Z"/><path class="cls-2" d="M1394.1,802.49h-.5l-405.46-5.86v-.5L994,390.67h.5L1400,396.54v.5Zm-404.95-6.85,404,5.84,5.84-404-404-5.83Zm400,1.78h-.5L993.21,791.7v-.5l5.71-395.46h.5l395.46,5.71v.5Zm-395-6.7,394,5.69,5.69-394-393.95-5.69Z"/><path class="cls-1" d="M1393.6,802l-2.5,0-402.45-5.81,0-2.5,5.82-402.46,2.5,0L1399.45,397l0,2.5ZM993.72,791.21l395,5.71,5.7-395-395-5.71Z"/><path class="cls-2" d="M1394.1,802.49l-3,0-403-5.82,0-3,5.82-403,3,0,403,5.83,0,3Zm-404.95-6.85,404,5.84,5.84-404-404-5.83Zm400,1.78h-.5L993.21,791.7v-.5l5.71-395.46h.5l395.46,5.71v.5Zm-395-6.7,394,5.69,5.69-394-393.95-5.69Z"/><path class="cls-1" d="M1396.07,804.52l-5-.07-405-5.85,5.92-410,5,.07,405,5.85Zm-216.83-8.13,211.9,3.06Zm-183-7.64,390,5.63,5.64-390-390-5.63Zm400.67-389.26,0,2.5-5.21,361,5.25-363.47Zm-400-5.78L994.1,591.83,997,393.71l209.47,3Z"/><path class="cls-2" d="M1396.56,805l-5.5-.08L985.6,799.09v-.5l5.93-410.45,5.5.07,405.46,5.86v.5Zm-409.94-6.92,408.95,5.9,5.91-408.95-409-5.91ZM1391.13,800l-211.9-3.06v-1L1391.15,799Zm-4.42-5.06h-.5l-390.46-5.64v-.5l5.64-390.46h.5l390.46,5.64v.5Zm-390-6.64,389,5.62,5.62-389-389-5.62ZM1392.17,763h-1l5.25-363.47,1,0,0,2.5ZM994.6,591.84l-1,0,2.87-198.61,210,3,0,1-209-3Z"/><path class="cls-1" d="M1391.63,800l-401-5.79,5.8-401,401,5.79Zm-399.94-6.78,399,5.76,5.76-399-399-5.77Z"/><path class="cls-2" d="M1392.13,800.46h-.5l-401.46-5.8v-.5L996,392.7h.5l401.46,5.8v.5ZM992.2,792.69l398,5.75,5.75-398-398-5.75Z"/><path class="cls-1" d="M1394.1,802.49l-406-5.86,5.86-406,406,5.87ZM994.22,790.72l394,5.69,5.7-394-394-5.69Z"/><path class="cls-2" d="M1394.59,803h-.5l-406.46-5.87v-.5l5.87-406.46h.5L1400.47,396v.5Zm-405.94-6.86L1393.6,802l5.85-405-405-5.85Zm400,.77h-.5l-394.46-5.7v-.5l5.7-394.46h.5l394.46,5.7v.5Zm-394-6.69,393,5.68,5.68-393-393-5.67Z"/><path class="cls-1" d="M1394.1,802.49l-2.5,0-403.46-5.83,0-2.5L994,390.67l2.5,0L1400,396.54l0,2.5ZM994.22,790.72l394,5.69,5.69-394-393.95-5.69Z"/><path class="cls-2" d="M1394.59,803l-3,0-404-5.84,0-3,5.84-404,3,0,404,5.83,0,3Zm-405.94-6.86L1393.6,802l5.85-405-405-5.85Zm400,.78h-.5l-394.46-5.7v-.5l5.7-394.46h.5l394.46,5.7v.5Zm-394-6.7,393,5.68,5.68-393-393-5.68Z"/><path class="cls-1" d="M1396.56,805l-5-.07-406-5.87.07-5,5.87-406,5,.07,406,5.86-.08,5ZM990.67,794.17l401,5.79,5.79-401-401-5.79-5.8,401Zm400,4.77-399-5.76,5.76-399,399,5.76ZM996.76,788.25l389,5.62,5.62-389-389-5.62Z"/><path class="cls-2" d="M1397.05,805.54l-5.5-.08L985.1,799.59l.07-5.5,5.88-406.46,5.49.08L1403,393.58l-.08,5.5ZM986.11,798.6l410,5.92,5.92-410-410-5.92Zm406,1.87h-.5l-401.46-5.8v-.5L996,392.7h.5l401.46,5.8v.5ZM1293.81,798l97.33,1.41ZM992.2,792.69l398,5.75,5.75-398-398-5.75Zm-1,1v-.5L997,393.71h.5l375,5.42L997,393.71Zm395,.71h-.5l-389.46-5.62v-.5l5.63-389.46h.5l389.46,5.63v.5Zm-388.94-6.62,388,5.6,5.6-388-388-5.6Z"/><rect class="cls-1" x="980.09" y="1594.63" width="400" height="400" transform="translate(22.82 -14.8) rotate(0.73)"/><path class="cls-2" d="M1378,1997.66l-401-5.08,5.08-401,401,5.08Zm-399.95-6.07,399,5.05,5.06-399-399-5.06Z"/><path class="cls-1" d="M1380,1999.68l-2.5,0L975,1994.55l0-2.5,5.1-402.47,2.5,0,402.46,5.09,0,2.5ZM980.1,1989.62l395,5,5-395-395-5Z"/><path class="cls-2" d="M1380.5,2000.19l-406-5.14,5.14-406,406,5.14Zm-405-6.13,404,5.11,5.12-404-404-5.12Zm400,1.06-396-5,5-396,396,5Zm-394.95-6,394,5,5-394-394-5Z"/><path class="cls-1" d="M1380,1999.68l-2.5,0L975,1994.55l0-2.5,5.1-402.47,2.5,0,402.46,5.09,0,2.5ZM980.1,1989.62l395,5,5-395-395-5Z"/><path class="cls-2" d="M1380.5,2000.19l-406-5.14,5.14-406,406,5.14Zm-405-6.13,404,5.11,5.12-404-404-5.12Zm400,1.06-396-5,5-396,396,5Zm-394.95-6,394,5,5-394-394-5Z"/><path class="cls-1" d="M1382.47,2002.21l-5-.06-405-5.13.06-5,5.13-405,5,.07,405,5.13-.07,5Zm-4.93-5.06,4.06-320.77Zm-394.91-10,390,4.94,4.94-390-390-4.94Zm0-395-4,318Z"/><path class="cls-2" d="M1383,2002.72l-411-5.21,5.21-411,411,5.2Zm-410-6.19,409,5.18,5.18-409-409-5.18Zm405,.63-1,0,4.06-320.77h1Zm-4.94-4.57-391-4.95,5-391,391,4.95Zm-390-5.94,389,4.93,4.92-389-389-4.92Zm-4-76.57h-1l4-318h1Z"/><path class="cls-1" d="M1378,1997.66l-401-5.08,5.08-401,401,5.08Zm-399.95-6.07,399,5.05,5.06-399-399-5.06Z"/><path class="cls-2" d="M1378.52,1998.16l-402-5.09,5.09-402,402,5.09Zm-400.95-6.08,400,5.07,5.06-400-400-5.06Zm400,5.07-400-5.07,5.07-400,400,5.06Zm-399-6.05,398,5,5-398-398-5Z"/><path class="cls-1" d="M1380.5,2000.19l-2.5,0-403.47-5.11,0-2.5,5.11-403.47,2.5,0,403.47,5.11,0,2.5Zm-399.89-11.07,394,5,5-394-394-5Z"/><path class="cls-2" d="M1381,2000.69l-407-5.15,5.15-407,407,5.16Zm-406-6.14,405,5.13,5.12-405-405-5.13Zm400,.07-395-5,5-395,395,5Zm-394-6,393,5,5-393-393-5Z"/><path class="cls-1" d="M1380.5,2000.19l-2.5,0-403.47-5.11,0-2.5,5.11-403.47,2.5,0,403.47,5.11,0,2.5Zm-399.89-11.07,394,5,5-394-394-5Z"/><path class="cls-2" d="M1381,2000.69l-407-5.15,5.15-407,407,5.16Zm-406-6.14,405,5.13,5.12-405-405-5.13Zm400,.07-395-5,5-395,395,5Zm-394-6,393,5,5-393-393-5Z"/><path class="cls-1" d="M1383,2002.72l-5-.06-406-5.15.06-5,5.15-406,5,.06,406,5.14-.06,5Zm-405.91-10.14,401,5.08,5.08-401-401-5.08Zm400,4.06-2.5,0-396.46-5,0-2.5,5-396.47,2.5,0,396.47,5,0,2.49Zm-393.9-10,389,4.93,4.92-389-389-4.93Z"/><path class="cls-2" d="M1383.46,2003.23l-412-5.22,5.22-412,412,5.22ZM972.51,1997l410,5.19,5.2-410-410-5.2Zm406,1.14-402-5.09,5.09-402,402,5.09Zm-400.95-6.08,400,5.07.73-58.06-.73,58.06-400-5.07v0Zm1-1,398,5,5-398-398-5Zm4.06-399-.49,38.57.49-38.57h0Zm97.79,1.23,302.17,3.83v0Zm292.17,398.74-390-4.94,4.94-390,390,4.94Zm-388.95-5.93,388,4.91,4.92-388-388-4.91Z"/><rect class="cls-1" x="1374.33" y="1604.13" width="400" height="400" transform="translate(22.97 -19.79) rotate(0.73)"/><path class="cls-2" d="M1772.28,2007.16l-401-5.08,5.08-401,401,5.08Zm-400-6.07,399,5.05,5-399-399-5.06Z"/><path class="cls-1" d="M1774.25,2009.18l-2.5,0-402.46-5.1,0-2.5,5.09-402.47,2.5,0,402.47,5.09,0,2.5Zm-399.9-10.06,395,5,5-395-395-5Z"/><path class="cls-2" d="M1774.75,2009.69l-406-5.14,5.14-406,406,5.14Zm-405-6.13,404,5.11,5.12-404-404-5.12Zm400,1.06-396-5,5-396,396,5Zm-395-6,394,5,5-394-394-5Z"/><path class="cls-1" d="M1774.25,2009.18l-2.5,0-402.46-5.1,0-2.5,5.09-402.47,2.5,0,402.47,5.09,0,2.5Zm-399.9-10.06,395,5,5-395-395-5Z"/><path class="cls-2" d="M1774.75,2009.69l-406-5.14,5.14-406,406,5.14Zm-405-6.13,404,5.11,5.12-404-404-5.12Zm400,1.06-396-5,5-396,396,5Zm-395-6,394,5,5-394-394-5Z"/><path class="cls-1" d="M1776.72,2011.71l-5-.06-405-5.13.07-5,5.13-405,5,.07,405,5.13-.06,5Zm-4.93-5.06,4.06-320.77Zm-394.91-10,390,4.94,4.94-390-390-4.94Zm0-395-4,318Z"/><path class="cls-2" d="M1777.22,2012.22l-411-5.21,5.2-411,411,5.2Zm-410-6.19,409,5.18,5.18-409-409-5.18Zm405,.63-1,0,4.06-320.77h1Zm-5-4.57-391-4.95,5-391,391,4.95Zm-389.95-5.94,389,4.93,4.93-389-389-4.92Zm-4-76.57h-1l4-318h1Z"/><path class="cls-1" d="M1772.28,2007.16l-401-5.08,5.08-401,401,5.08Zm-400-6.07,399,5.05,5-399-399-5.06Z"/><path class="cls-2" d="M1772.77,2007.66l-402-5.09,5.1-402,402,5.09Zm-401-6.08,400,5.07,5.07-400-400-5.06Zm400,5.07-400-5.07,5.06-400,400,5.06Zm-399-6.05,398,5,5-398-398-5Z"/><path class="cls-1" d="M1774.75,2009.69l-2.5,0-403.47-5.11,0-2.5,5.11-403.47,2.5,0,403.47,5.11,0,2.5Zm-399.9-11.07,394,5,5-394-394-5Z"/><path class="cls-2" d="M1775.24,2010.19l-407-5.15,5.16-407,407,5.16Zm-406-6.14,405,5.13,5.13-405-405-5.13Zm400,.07-395-5,5-395,395,5Zm-394-6,393,5,5-393-393-5Z"/><path class="cls-1" d="M1774.75,2009.69l-2.5,0-403.47-5.11,0-2.5,5.11-403.47,2.5,0,403.47,5.11,0,2.5Zm-399.9-11.07,394,5,5-394-394-5Z"/><path class="cls-2" d="M1775.24,2010.19l-407-5.15,5.16-407,407,5.16Zm-406-6.14,405,5.13,5.13-405-405-5.13Zm400,.07-395-5,5-395,395,5Zm-394-6,393,5,5-393-393-5Z"/><path class="cls-1" d="M1777.21,2012.22l-5-.06-406-5.15.06-5,5.14-406,5,.06,406,5.14-.06,5Zm-405.9-10.14,401,5.08,5.08-401-401-5.08Zm400,4.06-2.5,0-396.47-5,0-2.5,5-396.47,2.5,0,396.46,5,0,2.49Zm-393.9-10,389,4.93,4.93-389-389-4.93Z"/><path class="cls-2" d="M1777.71,2012.73l-412-5.22,5.22-412,412,5.22Zm-411-6.21,410,5.19,5.19-410-410-5.2Zm406,1.14-402-5.09,5.1-402,402,5.09Zm-401-6.08,400,5.07.74-58.06-.74,58.06-400-5.07v0Zm1-1,398,5,5-398-398-5Zm4.05-399-.49,38.57.49-38.57h0Zm97.8,1.23,302.17,3.83,0,1.23,0-1.23Zm292.17,398.74-390-4.94,4.94-390,390,4.94Zm-389-5.93,388,4.91,4.92-388-388-4.91Z"/><rect class="cls-1" x="1774.33" y="1609.13" width="400" height="400" transform="translate(23.07 -24.86) rotate(0.73)"/><path class="cls-2" d="M2172.28,2012.16l-401-5.08,5.08-401,401,5.08Zm-400-6.07,399,5.05,5.05-399-399-5.06Z"/><path class="cls-1" d="M2174.25,2014.18l-2.5,0-402.46-5.1,0-2.5,5.09-402.47,2.5,0,402.47,5.09,0,2.5Zm-399.9-10.06,395,5,5-395-395-5Z"/><path class="cls-2" d="M2174.75,2014.69l-406-5.14,5.14-406,406,5.14Zm-405-6.13,404,5.11,5.12-404-404-5.12Zm400,1.06-396-5,5-396,396,5Zm-395-6,394,5,5-394-394-5Z"/><path class="cls-1" d="M2174.25,2014.18l-2.5,0-402.46-5.1,0-2.5,5.09-402.47,2.5,0,402.47,5.09,0,2.5Zm-399.9-10.06,395,5,5-395-395-5Z"/><path class="cls-2" d="M2174.75,2014.69l-406-5.14,5.14-406,406,5.14Zm-405-6.13,404,5.11,5.12-404-404-5.12Zm400,1.06-396-5,5-396,396,5Zm-395-6,394,5,5-394-394-5Z"/><path class="cls-1" d="M2176.72,2016.71l-5-.06-405-5.13.07-5,5.13-405,5,.07,405,5.13-.06,5Zm-4.93-5.06h0l4.85-383-4.86,383Zm-394.91-10,390,4.94,4.94-390-390-4.94Zm0-395-4,318Z"/><path class="cls-2" d="M2177.22,2017.22l-411-5.21,5.2-411,411,5.2Zm-410-6.19,409,5.18,5.18-409-409-5.18Zm405,.63-1,0,4.85-383h1Zm-4.95-4.57-391-4.95,5-391,391,4.95Zm-390-5.94,389,4.93,4.93-389-389-4.92Zm-4-76.57h-1l4-318h1Z"/><path class="cls-1" d="M2172.28,2012.16l-401-5.08,5.08-401,401,5.08Zm-400-6.07,399,5.05,5.05-399-399-5.06Z"/><path class="cls-2" d="M2172.77,2012.66l-402-5.09,5.1-402,402,5.09Zm-401-6.08,400,5.07,5.07-400-400-5.06Zm400,5.07-400-5.07,5.06-400,400,5.06Zm-399-6.05,398,5,5-398-398-5Z"/><path class="cls-1" d="M2174.75,2014.69l-2.5,0-403.47-5.11,0-2.5,5.11-403.47,2.5,0,403.47,5.11,0,2.5Zm-399.9-11.07,394,5,5-394-394-5Z"/><path class="cls-2" d="M2175.24,2015.19l-407-5.15,5.16-407,407,5.16Zm-405.95-6.14,405,5.13,5.13-405-405-5.13Zm400,.07-395-5,5-395,395,5Zm-394-6,393,5,5-393-393-5Z"/><path class="cls-1" d="M2174.75,2014.69l-2.5,0-403.47-5.11,0-2.5,5.11-403.47,2.5,0,403.47,5.11,0,2.5Zm-399.9-11.07,394,5,5-394-394-5Z"/><path class="cls-2" d="M2175.24,2015.19l-407-5.15,5.16-407,407,5.16Zm-405.95-6.14,405,5.13,5.13-405-405-5.13Zm400,.07-395-5,5-395,395,5Zm-394-6,393,5,5-393-393-5Z"/><path class="cls-1" d="M2177.21,2017.22l-5-.06-406-5.15.06-5,5.14-406,5,.06,406,5.14-.06,5Zm-405.9-10.14,401,5.08,5.08-401-401-5.08Zm400,4.06-2.5,0-396.47-5,0-2.5,5-396.47,2.5,0,396.46,5,0,2.49Zm-393.9-10,389,4.93,4.93-389-389-4.93Z"/><path class="cls-2" d="M2177.71,2017.73l-412-5.22,5.22-412,412,5.22Zm-411-6.21,410,5.19,5.19-410-410-5.2Zm406,1.14-402-5.09,5.1-402,402,5.09Zm-401-6.08,400,5.07,5.07-400-303-3.84,303,3.84-5.07,400-400-5.07v0Zm1-1,398,5,5-398-398-5Zm4.05-399-.49,38.57.49-38.57h0Zm390,400-390-4.94,4.94-390,390,4.94Zm-389-5.93,388,4.91,4.91-388-388-4.91Z"/><rect class="cls-1" x="965.23" y="2788.48" width="400" height="400"/><path class="cls-2" d="M964.75,3189l0-401,401-.05,0,401Zm1-400,0,399,399-.05,0-399Z"/><path class="cls-1" d="M962.75,3191l0-405,405-.05,0,405Zm5-400,0,395,395-.05,0-395Z"/><path class="cls-2" d="M962.25,3191.5l0-406,406-.05,0,406Zm1-405,0,404,404-.05,0-404Zm4,400,0-396,396-.05,0,396Zm1-395,0,394,394-.05,0-394Z"/><path class="cls-1" d="M1367.75,3191h-2.5l-402.5.05v-2.5l0-402.5h2.5l402.5-.05v2.5Zm-400-4.95,395-.05,0-395-395,.05Z"/><path class="cls-2" d="M962.25,3191.5l0-406,406-.05,0,406Zm1-405,0,404,404-.05,0-404Zm4,400,0-396,396-.05,0,396Zm1-395,0,394,394-.05,0-394Z"/><path class="cls-1" d="M960.25,3193.5l0-410h5l405-.05,0,410h-5Zm405-257.41,0,252.36h0Zm-395-142.59,0,390,390-.05,0-390Zm-5-5,0,252.59,0-252.59h0Z"/><path class="cls-2" d="M959.75,3194l0-411,411-.05,0,411Zm1-410,0,409,409-.05,0-409Zm339.48,405v-1h64.57l0-251.86h1l0,252.86Zm-330.43-5,0-391,391-.05,0,391Zm1-390,0,389,389-.05,0-389Zm-6,247.09,0-253.09H1031v1H965.7l0,252.09Z"/><path class="cls-1" d="M1365.75,3189l-401,.05,0-401,401-.05Zm-400-.95,399-.05,0-399-399,.05Z"/><path class="cls-2" d="M964.25,3189.5l0-402,402-.05,0,402Zm1-201,0,200Zm400,199.92-200,0Zm-399-398.95,0,398,398-.05,0-398Zm399-1.05,0,200Zm-400,.05,200,0Z"/><path class="cls-1" d="M962.25,3191.5l0-406,406-.05,0,406Zm6-400,0,394,394-.05,0-394Z"/><path class="cls-2" d="M961.75,3192l0-407,407-.05,0,407Zm1-406,0,405,405-.05,0-405Zm5,400,0-395,395-.05,0,395Zm1-394,0,393,393-.05,0-393Z"/><path class="cls-1" d="M1368.25,3191.45h-2.5l-403.5.05V3189l0-403.5h2.5l403.5-.05v2.5Zm-400-5.95,394-.05,0-394-394,.05Z"/><path class="cls-2" d="M961.75,3192l0-407,407-.05,0,407Zm1-406,0,405,405-.05,0-405Zm5,400,0-395,395-.05,0,395Zm1-394,0,393,393-.05,0-393Z"/><path class="cls-1" d="M959.75,3194l0-411h5l406-.05,0,411h-5Zm5-406,0,401,401-.05,0-401Zm1,400,0-399,399-.05,0,399Zm5-394,0,389,389-.05,0-389Z"/><path class="cls-2" d="M959.25,3194.5l0-412,412-.05,0,412Zm1-411,0,410,410-.05,0-410Zm4,406,0-402,402-.05,0,402Zm1-201.07,0,200.07,400-.05-400,.05Zm1-198.93,0,398,398-.05,0-398Zm399-1.05,0,200.07,0-200.07-400,.05Zm-395,395.05,0-390,390-.05,0,390Zm1-389,0,388,388-.05,0-388Z"/><rect class="cls-1" x="578.33" y="1594.13" width="400" height="400" transform="translate(22.78 -9.71) rotate(0.73)"/><path class="cls-2" d="M976.28,1997.16l-401-5.08,5.08-401,401,5.08Zm-400-6.07,399,5.05,5.05-399-399-5.06Z"/><path class="cls-1" d="M978.25,1999.18l-2.5,0-402.46-5.1,0-2.5,5.09-402.47,2.5,0,402.47,5.09,0,2.5Zm-399.9-10.06,395,5,5-395-395-5Z"/><path class="cls-2" d="M978.75,1999.69l-406-5.14,0-3,5.1-403,406,5.14Zm-405-6.13,404,5.11,5.12-404-404-5.12Zm400,1.06-396-5,5-396,396,5Zm-395-6,394,5,5-394-394-5Z"/><path class="cls-1" d="M978.25,1999.18l-2.5,0-402.46-5.1,0-2.5,5.09-402.47,2.5,0,402.47,5.09,0,2.5Zm-399.9-10.06,395,5,5-395-395-5Z"/><path class="cls-2" d="M978.75,1999.69l-406-5.14,0-3,5.1-403,406,5.14Zm-405-6.13,404,5.11,5.12-404-404-5.12Zm400,1.06-396-5,5-396,396,5Zm-395-6,394,5,5-394-394-5Z"/><path class="cls-1" d="M980.72,2001.71l-5-.06-405-5.13.07-5,5.13-405,5,.07,405,5.13-.06,5Zm-4.93-5.06,4.06-320.77Zm-394.91-10,390,4.94,4.94-390-390-4.94Zm0-395-4,318Z"/><path class="cls-2" d="M981.22,2002.22l-411-5.21,5.2-411,411,5.2Zm-410-6.19,409,5.18,5.18-409-409-5.18Zm405,.63-1,0,4.06-320.77h1Zm-4.95-4.57-391-4.95,5-391,391,4.95Zm-390-5.94,389,4.93,4.93-389-389-4.92Zm-4-76.57h-1l4-318h1Z"/><path class="cls-1" d="M976.28,1997.16l-401-5.08,5.08-401,401,5.08Zm-400-6.07,399,5.05,5.05-399-399-5.06Z"/><path class="cls-2" d="M976.77,1997.66l-402-5.09,5.1-402,402,5.09Zm-400.95-6.08,400,5.07,5.07-400-400-5.06Zm400,5.07-400-5.07,5.06-400,400,5.06Zm-398.95-6.05,398,5,5-398-398-5Z"/><path class="cls-1" d="M978.75,1999.69l-2.5,0-403.47-5.11,0-2.5,5.11-403.47,2.5,0,403.47,5.11,0,2.5Zm-399.9-11.07,394,5,5-394-394-5Z"/><path class="cls-2" d="M979.24,2000.19l-407-5.15,0-3,5.12-404,407,5.16Zm-406-6.14,405,5.13,5.13-405-405-5.13Zm400,.07-395-5,5-395,395,5Zm-394-6,393,5,5-393-393-5Z"/><path class="cls-1" d="M978.75,1999.69l-2.5,0-403.47-5.11,0-2.5,5.11-403.47,2.5,0,403.47,5.11,0,2.5Zm-399.9-11.07,394,5,5-394-394-5Z"/><path class="cls-2" d="M979.24,2000.19l-407-5.15,0-3,5.12-404,407,5.16Zm-406-6.14,405,5.13,5.13-405-405-5.13Zm400,.07-395-5,5-395,395,5Zm-394-6,393,5,5-393-393-5Z"/><path class="cls-1" d="M981.21,2002.22l-5-.06-406-5.15.06-5,5.14-406,5,.06,406,5.14-.06,5Zm-405.9-10.14,401,5.08,5.08-401-401-5.08Zm400,4.06-2.5,0-396.47-5,0-2.5,5-396.47,2.5,0,396.46,5,0,2.49Zm-393.9-10,389,4.93,4.93-389-389-4.93Z"/><path class="cls-2" d="M981.71,2002.73l-412-5.22.07-5.5L575,1585.54l412,5.22Zm-411-6.21,410,5.19,5.19-410-410-5.2Zm406,1.14-402-5.09,5.1-402,402,5.09Zm-400.95-6.08,400,5.07,1.18-92.58-1.18,92.58-400-5.07v0Zm1-1,398,5,5-398-398-5Zm4-399-1.06,83.81,1.06-83.81h0Zm97.85,1.23,302.12,3.83v0Zm292.12,398.74-390-4.94,4.94-390,390,4.94Zm-389-5.93,388,4.91,4.92-388-388-4.91Z"/><rect class="cls-1" x="1395" y="11" width="410" height="386"/><path class="cls-2" d="M1805.5,397.5h-411V10.5h411Zm-410-1h409V11.5h-409Z"/><path class="cls-1" d="M1810,402H1390V6h420Zm-410-10h400V16H1400Z"/><path class="cls-2" d="M1810.5,402.5h-421V5.5h421Zm-420-1h419V6.5h-419Zm410-9h-401V15.5h401Zm-400-1h399V16.5h-399Z"/><rect class="cls-1" x="1805" y="11" width="410" height="386"/><path class="cls-2" d="M2215.5,397.5h-411V10.5h411Zm-410-1h409V11.5h-409Z"/><path class="cls-1" d="M2220,402H1800V6h420Zm-410-10h400V16H1810Z"/><path class="cls-2" d="M2220.5,402.5h-421V5.5h421Zm-420-1h419V6.5h-419Zm410-9h-401V15.5h401Zm-400-1h399V16.5h-399Z"/><rect class="cls-1" x="2215" y="11" width="410" height="386"/><path class="cls-2" d="M2625.5,397.5h-411V10.5h411Zm-410-1h409V11.5h-409Z"/><path class="cls-1" d="M2630,402H2210V6h420Zm-410-10h400V16H2220Z"/><path class="cls-2" d="M2630.5,402.5h-421V5.5h421Zm-420-1h419V6.5h-419Zm410-9h-401V15.5h401Zm-400-1h399V16.5h-399Z"/><rect class="cls-1" x="995.07" y="11" width="401.93" height="386"/><path class="cls-2" d="M1397.5,397.5H994.57V10.5H1397.5Zm-401.93-1H1396.5V11.5H995.57Z"/><path class="cls-1" d="M1402,402H990.07V6H1402Zm-401.93-10H1392V16H1000.07Z"/><path class="cls-2" d="M1402.5,402.5H989.57V5.5H1402.5Zm-411.93-1H1401.5V6.5H990.57Zm401.93-9H999.57V15.5H1392.5Zm-391.93-1H1391.5V16.5H1000.57Z"/></svg>