<svg xmlns="http://www.w3.org/2000/svg" viewBox="0 0 3200 3200"><defs><style>.cls-1{fill:#020202;}</style></defs><title>listsOfLists</title><g id="Шар_2" data-name="Шар 2"><rect class="cls-1" x="200" width="400" height="400"/><path class="cls-1" d="M605,405H195V-5H605ZM205,395H595V5H205Z"/><path class="cls-1" d="M600.5,400.5h-401V-.5h401Zm-400-1h399V.5h-399Z"/><path class="cls-1" d="M605.5,405.5h-411V-5.5h411Zm-400-11h389V5.5h-389Z"/><rect class="cls-1" x="200" y="800" width="400" height="400"/><path class="cls-1" d="M605,1205H195V795H605Zm-400-10H595V805H205Z"/><path class="cls-1" d="M600.5,1200.5h-401v-401h401Zm-400-1h399v-399h-399Z"/><path class="cls-1" d="M605.5,1205.5h-411v-411h411Zm-400-11h389v-389h-389Z"/><rect class="cls-1" x="200" y="1200" width="400" height="400"/><path class="cls-1" d="M605,1605H195V1195H605Zm-400-10H595V1205H205Z"/><path class="cls-1" d="M600.5,1600.5h-401v-401h401Zm-400-1h399v-399h-399Z"/><path class="cls-1" d="M605.5,1605.5h-411v-411h411Zm-400-11h389v-389h-389Z"/><rect class="cls-1" x="200" y="2000" width="400" height="400"/><path class="cls-1" d="M605,2405H195V1995H605Zm-400-10H595V2005H205Z"/><path class="cls-1" d="M600.5,2400.5h-401v-401h401Zm-400-1h399v-399h-399Z"/><path class="cls-1" d="M605.5,2405.5h-411v-411h411Zm-400-11h389v-389h-389Z"/><rect class="cls-1" x="200" y="2800" width="400" height="400"/><path class="cls-1" d="M605,3205H195V2795H605Zm-400-10H595V2805H205Z"/><path class="cls-1" d="M600.5,3200.5h-401v-401h401Zm-400-1h399v-399h-399Z"/><path class="cls-1" d="M605.5,3205.5h-411v-411h411Zm-400-11h389v-389h-389Z"/><rect class="cls-1" x="1000" y="2800" width="400" height="400"/><path class="cls-1" d="M1405,3205H995V2795h410Zm-400-10h390V2805H1005Z"/><path class="cls-1" d="M1400.5,3200.5h-401v-401h401Zm-400-1h399v-399h-399Z"/><path class="cls-1" d="M1405.5,3205.5h-411v-411h411Zm-400-11h389v-389h-389Z"/><rect class="cls-1" x="1800" y="1600" width="400" height="400"/><path class="cls-1" d="M2205,2005H1795V1595h410Zm-400-10h390V1605H1805Z"/><path class="cls-1" d="M2200.5,2000.5h-401v-401h401Zm-400-1h399v-399h-399Z"/><path class="cls-1" d="M2205.5,2005.5h-411v-411h411Zm-400-11h389v-389h-389Z"/><rect class="cls-1" x="1800" y="2400" width="400" height="400"/><path class="cls-1" d="M2205,2805H1795V2395h410Zm-400-10h390V2405H1805Z"/><path class="cls-1" d="M2200.5,2800.5h-401v-401h401Zm-400-1h399v-399h-399Z"/><path class="cls-1" d="M2205.5,2805.5h-411v-411h411Zm-400-11h389v-389h-389Z"/><rect class="cls-1" x="1800" y="2800" width="400" height="400"/><path class="cls-1" d="M2205,3205H1795V2795h410Zm-400-10h390V2805H1805Z"/><path class="cls-1" d="M2200.5,3200.5h-401v-401h401Zm-400-1h399v-399h-399Z"/><path class="cls-1" d="M2205.5,3205.5h-411v-411h411Zm-400-11h389v-389h-389Z"/><rect class="cls-1" x="2200" y="2800" width="400" height="400"/><path class="cls-1" d="M2605,3205H2195V2795h410Zm-400-10h390V2805H2205Z"/><path class="cls-1" d="M2600.5,3200.5h-401v-401h401Zm-400-1h399v-399h-399Z"/><path class="cls-1" d="M2605.5,3205.5h-411v-411h411Zm-400-11h389v-389h-389Z"/><rect class="cls-1" x="200" y="400" width="400" height="400"/><path class="cls-1" d="M605,805H195V395H605ZM205,795H595V405H205Z"/><path class="cls-1" d="M600.5,800.5h-401v-401h401Zm-400-1h399v-399h-399Z"/><path class="cls-1" d="M605.5,805.5h-411v-411h411Zm-400-11h389v-389h-389Z"/><rect class="cls-1" x="200" y="1600" width="400" height="400"/><path class="cls-1" d="M605,2005H195V1595H605Zm-400-10H595V1605H205Z"/><path class="cls-1" d="M600.5,2000.5h-401v-401h401Zm-400-1h399v-399h-399Z"/><path class="cls-1" d="M605.5,2005.5h-411v-411h411Zm-400-11h389v-389h-389Z"/><rect class="cls-1" x="200" y="2400" width="400" height="400"/><path class="cls-1" d="M605,2805H195V2395H605Zm-400-10H595V2405H205Z"/><path class="cls-1" d="M600.5,2800.5h-401v-401h401Zm-400-1h399v-399h-399Z"/><path class="cls-1" d="M605.5,2805.5h-411v-411h411Zm-400-11h389v-389h-389Z"/><rect class="cls-1" x="600" y="2800" width="400" height="400"/><path class="cls-1" d="M1005,3205H595V2795h410Zm-400-10H995V2805H605Z"/><path class="cls-1" d="M1000.5,3200.5h-401v-401h401Zm-400-1h399v-399h-399Z"/><path class="cls-1" d="M1005.5,3205.5h-411v-411h411Zm-400-11h389v-389h-389Z"/><rect class="cls-1" x="1400" y="2800" width="400" height="400"/><path class="cls-1" d="M1805,3205H1395V2795h410Zm-400-10h390V2805H1405Z"/><path class="cls-1" d="M1800.5,3200.5h-401v-401h401Zm-400-1h399v-399h-399Z"/><path class="cls-1" d="M1805.5,3205.5h-411v-411h411Zm-400-11h389v-389h-389Z"/><rect class="cls-1" x="1800" y="1200" width="400" height="400"/><path class="cls-1" d="M2205,1605H1795V1195h410Zm-400-10h390V1205H1805Z"/><path class="cls-1" d="M2200.5,1600.5h-401v-401h401Zm-400-1h399v-399h-399Z"/><path class="cls-1" d="M2205.5,1605.5h-411v-411h411Zm-400-11h389v-389h-389Z"/><rect class="cls-1" x="1800" y="2000" width="400" height="400"/><path class="cls-1" d="M2205,2405H1795V1995h410Zm-400-10h390V2005H1805Z"/><path class="cls-1" d="M2200.5,2400.5h-401v-401h401Zm-400-1h399v-399h-399Z"/><path class="cls-1" d="M2205.5,2405.5h-411v-411h411Zm-400-11h389v-389h-389Z"/><rect class="cls-1" x="2600" y="2800" width="400" height="400"/><path class="cls-1" d="M3005,3205H2595V2795h410Zm-400-10h390V2805H2605Z"/><path class="cls-1" d="M3000.5,3200.5h-401v-401h401Zm-400-1h399v-399h-399Z"/><path class="cls-1" d="M3005.5,3205.5h-411v-411h411Zm-400-11h389v-389h-389Z"/></g></svg>