<svg xmlns="http://www.w3.org/2000/svg" viewBox="0 0 3200 3200"><defs><style>.cls-1{fill:#020202;stroke:#020202;stroke-miterlimit:10;stroke-width:10px;}</style></defs><title>testsdata</title><g id="Шар_2" data-name="Шар 2"><rect class="cls-1" x="0.5" y="1599.5" width="400" height="400"/><path class="cls-1" d="M401,2000H0V1599H401ZM1,1999H400V1600H1Z"/><rect class="cls-1" x="400.5" y="2799.5" width="400" height="400"/><path class="cls-1" d="M801,3200H400V2799H801Zm-400-1H800V2800H401Z"/><rect class="cls-1" x="800.5" y="2799.5" width="400" height="400"/><path class="cls-1" d="M1201,3200H800V2799h401Zm-400-1h399V2800H801Z"/><rect class="cls-1" x="1200.5" y="2799.5" width="400" height="400"/><path class="cls-1" d="M1601,3200H1200V2799h401Zm-400-1h399V2800H1201Z"/><rect class="cls-1" x="400.5" y="399.5" width="400" height="400"/><path class="cls-1" d="M801,800H400V399H801Zm-400-1H800V400H401Z"/><rect class="cls-1" x="400.5" y="799.5" width="400" height="400"/><path class="cls-1" d="M801,1200H400V799H801Zm-400-1H800V800H401Z"/><rect class="cls-1" x="400.5" y="1199.5" width="400" height="400"/><path class="cls-1" d="M801,1600H400V1199H801Zm-400-1H800V1200H401Z"/><rect class="cls-1" x="400.5" y="1599.5" width="400" height="400"/><path class="cls-1" d="M801,2000H400V1599H801Zm-400-1H800V1600H401Z"/><rect class="cls-1" x="400.5" y="1999.5" width="400" height="400"/><path class="cls-1" d="M801,2400H400V1999H801Zm-400-1H800V2000H401Z"/><rect class="cls-1" x="400.5" y="2399.5" width="400" height="400"/><path class="cls-1" d="M801,2800H400V2399H801Zm-400-1H800V2400H401Z"/><rect class="cls-1" x="800.5" y="1599.5" width="400" height="400"/><path class="cls-1" d="M1201,2000H800V1599h401Zm-400-1h399V1600H801Z"/><rect class="cls-1" x="1200.5" y="1599.5" width="400" height="400"/><path class="cls-1" d="M1601,2000H1200V1599h401Zm-400-1h399V1600H1201Z"/><rect class="cls-1" x="2000" y="1600" width="400" height="400"/><path class="cls-1" d="M2400.5,2000.5h-401v-401h401Zm-400-1h399v-399h-399Z"/><rect class="cls-1" x="2000" y="2800" width="400" height="400"/><path class="cls-1" d="M2400.5,3200.5h-401v-401h401Zm-400-1h399v-399h-399Z"/><rect class="cls-1" x="2400" y="2800" width="400" height="400"/><path class="cls-1" d="M2800.5,3200.5h-401v-401h401Zm-400-1h399v-399h-399Z"/><rect class="cls-1" x="2800" y="2800" width="400" height="400"/><path class="cls-1" d="M3200.5,3200.5h-401v-401h401Zm-400-1h399v-399h-399Z"/><rect class="cls-1" x="1600" y="2000" width="400" height="400"/><path class="cls-1" d="M2000.5,2400.5h-401v-401h401Zm-400-1h399v-399h-399Z"/><rect class="cls-1" x="1600" y="2400" width="400" height="400"/><path class="cls-1" d="M2000.5,2800.5h-401v-401h401Zm-400-1h399v-399h-399Z"/><rect class="cls-1" x="2400" y="1600" width="400" height="400"/><path class="cls-1" d="M2800.5,2000.5h-401v-401h401Zm-400-1h399v-399h-399Z"/><rect class="cls-1" x="2800" width="400" height="400"/><path class="cls-1" d="M3200.5,400.5h-401V-.5h401Zm-400-1h399V.5h-399Z"/><rect class="cls-1" x="2800" y="400" width="400" height="400"/><path class="cls-1" d="M3200.5,800.5h-401v-401h401Zm-400-1h399v-399h-399Z"/><rect class="cls-1" x="2800" y="800" width="400" height="400"/><path class="cls-1" d="M3200.5,1200.5h-401v-401h401Zm-400-1h399v-399h-399Z"/><rect class="cls-1" x="2800" y="1200" width="400" height="400"/><path class="cls-1" d="M3200.5,1600.5h-401v-401h401Zm-400-1h399v-399h-399Z"/><rect class="cls-1" x="2800" y="1600" width="400" height="400"/><path class="cls-1" d="M3200.5,2000.5h-401v-401h401Zm-400-1h399v-399h-399Z"/><rect class="cls-1" x="2800" y="2000" width="400" height="400"/><path class="cls-1" d="M3200.5,2400.5h-401v-401h401Zm-400-1h399v-399h-399Z"/><rect class="cls-1" x="2800" y="2400" width="400" height="400"/><path class="cls-1" d="M3200.5,2800.5h-401v-401h401Zm-400-1h399v-399h-399Z"/></g></svg>