<svg id="Шар_1" data-name="Шар 1" xmlns="http://www.w3.org/2000/svg" viewBox="0 0 3200 3200"><title>visualisation</title><rect x="1569.82" y="2398.33" width="400" height="400" transform="translate(17.91 -12.11) rotate(0.39)"/><path d="M1973.4,2804.74l-410-2.82,2.82-410,410,2.82ZM1573.48,2792l390,2.68,2.68-390-390-2.68Z"/><path d="M1968.93,2800.21l-401-2.76,2.76-401,401,2.76Zm-400-3.75,399,2.74,2.75-399-399-2.74Z"/><path d="M1973.9,2805.24l-411-2.82,2.83-411,411,2.82ZM1574,2791.49l389,2.68,2.67-389-389-2.68Z"/><rect x="1773.05" y="2001.22" width="400" height="400" transform="translate(15.19 -13.52) rotate(0.39)"/><path d="M2176.64,2407.63l-410-2.82,2.82-410,410,2.82Zm-399.92-12.75,390,2.68,2.68-390-390-2.68Z"/><path d="M2172.17,2403.1l-401-2.76,2.76-401,401,2.76Zm-400-3.75,399,2.74,2.74-399-399-2.74Z"/><path d="M2177.14,2408.13l-411-2.83,2.82-411,411,2.83Zm-399.92-13.75,389,2.68,2.68-389-389-2.68Z"/><rect x="1981.31" y="801.63" width="400" height="400" transform="translate(6.94 -14.98) rotate(0.39)"/><path d="M2384.89,1208l-410-2.82,2.82-410,410,2.82ZM1985,1195.28l390,2.68,2.69-390-390-2.68Z"/><path d="M2380.43,1203.5l-401-2.76,2.75-401,401,2.76Zm-400-3.75,399,2.74,2.75-399-399-2.74Z"/><path d="M2385.39,1208.54l-411-2.83,2.83-411,411,2.83Zm-399.91-13.76,389,2.68,2.67-389-389-2.68Z"/><rect x="1978.56" y="1201.62" width="400" height="400" transform="translate(9.69 -14.95) rotate(0.39)"/><path d="M2382.14,1608l-410-2.82,2.82-410,410,2.82Zm-399.92-12.75,390,2.68,2.69-390-390-2.68Z"/><path d="M2377.67,1603.49l-401-2.76,2.76-401,401,2.76Zm-400-3.75,399,2.74,2.75-399-399-2.74Z"/><path d="M2382.64,1608.53l-411-2.83,2.83-411,411,2.83Zm-399.91-13.75,389,2.67,2.67-389-389-2.68Z"/><rect x="2186.8" y="4.02" width="400" height="400" transform="translate(1.46 -16.41) rotate(0.39)"/><path d="M2590.39,410.43l-410-2.82,2.82-410,410,2.82Zm-399.93-12.75,390,2.68,2.69-390-390-2.69Z"/><path d="M2585.92,405.9l-401-2.76,2.75-401,401,2.76Zm-400-3.76,399,2.75,2.75-399-399-2.75Z"/><path d="M2590.88,410.93l-411-2.83,2.83-411,411,2.83ZM2191,397.18l389,2.67,2.67-389-389-2.67Z"/><rect x="1367.58" y="2796.45" width="400" height="400" transform="translate(20.65 -10.71) rotate(0.39)"/><path d="M1771.16,3202.86l-410-2.82,2.82-410,410,2.82Zm-399.92-12.75,390,2.68,2.68-390-390-2.68Z"/><path d="M1766.69,3198.33l-401-2.76,2.76-401,401,2.76Zm-400-3.75,399,2.74,2.74-399-399-2.74Z"/><path d="M1771.66,3203.36l-411-2.83,2.82-411,411,2.83Zm-399.92-13.75,389,2.68,2.68-389-389-2.68Z"/><rect x="995.08" y="1994.87" width="400" height="400" transform="translate(15.12 -8.17) rotate(0.39)"/><path d="M1398.66,2401.28l-410-2.82,2.82-410,410,2.82Zm-399.92-12.75,390,2.68,2.69-390-390-2.68Z"/><path d="M1394.2,2396.75l-401-2.76L996,1993l401,2.76Zm-400-3.75,399,2.74,2.75-399L997,1994Z"/><path d="M1399.16,2401.78l-411-2.83L991,1988l411,2.83ZM999.25,2388l389,2.68,2.67-389-389-2.67Z"/><rect x="1169.83" y="2395.58" width="400" height="400" transform="translate(17.88 -9.36) rotate(0.39)"/><path d="M1573.41,2802l-410-2.82,2.82-410,410,2.82Zm-399.92-12.75,390,2.68,2.68-390-390-2.68Z"/><path d="M1568.94,2797.46l-401-2.76,2.76-401,401,2.76Zm-400-3.75,399,2.74,2.74-399-399-2.74Z"/><path d="M1573.91,2802.49l-411-2.82,2.83-411,411,2.83ZM1174,2788.74l389,2.68,2.67-389-389-2.68Z"/><rect x="1775.81" y="1601.23" width="400" height="400" transform="translate(12.44 -13.55) rotate(0.39)"/><path d="M2179.39,2007.64l-410-2.82,2.82-410,410,2.82Zm-399.92-12.75,390,2.68,2.68-390-390-2.68Z"/><path d="M2174.92,2003.11l-401-2.76,2.76-401,401,2.76Zm-400-3.75,399,2.74,2.74-399-399-2.74Z"/><path d="M2179.89,2008.14l-411-2.83,2.82-411,411,2.83ZM1780,1994.39l389,2.68,2.68-389-389-2.67Z"/><rect x="2184.05" y="404.01" width="400" height="400" transform="translate(4.21 -16.38) rotate(0.39)"/><path d="M2587.63,810.42l-410-2.82,2.82-410,410,2.82Zm-399.92-12.75,390,2.68,2.69-390-390-2.68Z"/><path d="M2583.17,805.89l-401-2.76,2.76-401,401,2.76Zm-400-3.75,399,2.74,2.75-399-399-2.75Z"/><path d="M2588.13,810.92l-411-2.83,2.83-411,411,2.83Zm-399.91-13.75,389,2.68,2.67-389-389-2.67Z"/><rect x="997.83" y="1594.88" width="400" height="400" transform="translate(12.37 -8.2) rotate(0.39)"/><path d="M1401.42,2001.29l-410-2.82,2.82-410,410,2.82Zm-399.93-12.75,390,2.68,2.69-390-390-2.69Z"/><path d="M1397,1996.76,996,1994l2.75-401,401,2.76ZM997,1993l399,2.75,2.75-399-399-2.75Z"/><path d="M1401.91,2001.79l-411-2.83,2.83-411,411,2.83ZM1002,1988l389,2.67,2.67-389-389-2.67Z"/><rect x="781.34" y="793.37" width="400" height="400" transform="translate(6.86 -6.73) rotate(0.39)"/><path d="M1184.92,1199.78l-410-2.82,2.82-410,410,2.82ZM785,1187l390,2.68,2.68-390-390-2.68Z"/><path d="M1180.45,1195.25l-401-2.76,2.76-401,401,2.76Zm-400-3.75,399,2.74,2.75-399-399-2.74Z"/><path d="M1185.42,1200.28l-411-2.82,2.83-411,411,2.82ZM785.5,1186.53l389,2.68,2.67-389-389-2.68Z"/><rect x="778.59" y="1193.36" width="400" height="400" transform="translate(9.61 -6.7) rotate(0.39)"/><path d="M1182.17,1599.77l-410-2.82L775,1187l410,2.82ZM782.25,1587l390,2.68,2.68-390-390-2.68Z"/><path d="M1177.7,1595.24l-401-2.76,2.76-401,401,2.76Zm-400-3.75,399,2.74,2.74-399-399-2.74Z"/><path d="M1182.67,1600.27l-411-2.82,2.83-411,411,2.82Zm-399.92-13.75,389,2.68,2.68-389-389-2.68Z"/><rect x="586.84" y="-7.98" width="400" height="400" transform="translate(1.34 -5.41) rotate(0.39)"/><path d="M990.43,398.42l-410-2.82,2.82-410,410,2.82ZM590.51,385.67l390,2.68,2.68-390-390-2.68Z"/><path d="M986,393.89l-401-2.76,2.76-401,401,2.76Zm-400-3.75,399,2.74,2.74-399-399-2.74Z"/><path d="M990.93,398.93l-411-2.83,2.82-411,411,2.83ZM591,385.17l389,2.68,2.68-389-389-2.68Z"/><rect x="584.09" y="392.01" width="400" height="400" transform="translate(4.09 -5.38) rotate(0.39)"/><path d="M987.68,798.41l-410-2.82,2.82-410,410,2.82ZM587.76,785.66l390,2.68,2.68-390-390-2.68Z"/><path d="M983.21,793.88l-401-2.76,2.76-401,401,2.76Zm-400-3.75,399,2.75,2.74-399-399-2.74Z"/><path d="M988.18,798.92l-411-2.83,2.82-411,411,2.83ZM588.26,785.17l389,2.67,2.68-389-389-2.68Z"/></svg>